<svg xmlns="http://www.w3.org/2000/svg" viewBox="0 0 32 32" width="32" height="32">
  <!--
    The browser-tab icon. Next's App Router picks this up from app/icon.svg on
    its own — no <link rel="icon"> and no metadata entry needed.

    Colours are literal because this file is served as a static asset and never
    goes through the CSS build. #22738f is ocean-600; keep the two in step if
    the accent ever moves. The geometry matches Wordmark in
    components/ui/Icon.tsx — same paths, same transform.
  -->
  <rect width="32" height="32" rx="8" fill="#22738f"/>
  <g transform="translate(16 16) scale(0.76) rotate(-40) translate(-16 -14)" fill="#ffffff">
    <path d="M2.2 16 C4.2 10.6 8.2 7.9 13 7.9 C18.2 7.9 22 11.2 24 16
             C22 20.4 18.2 22.9 13 22.9 C8.2 22.9 4.2 21 2.2 16 Z"/>
    <path d="M22 16 C24.8 13.2 27.4 10.2 29.8 7.4 C29 11 27.6 14 26.2 16
             C27.6 18 29 21 29.8 24.6 C27.4 21.8 24.8 18.8 22 16 Z"/>
    <path d="M11.4 10.8 C14.4 6.8 18.6 4.9 22.4 6.4 C20 8 19.4 9.6 19.1 11.2 Z"/>
    <circle cx="7.8" cy="13.8" r="1.5" fill="#22738f"/>
  </g>
</svg>
